<svg width="80" height="80" viewBox="0 0 80 80" fill="none" xmlns="http://www.w3.org/2000/svg">
<rect width="80" height="80" fill="#F5F5F5"/>
<rect width="80" height="80" fill="#53B175"/>
<path fill-rule="evenodd" clip-rule="evenodd" d="M48.962 16.3836C49.204 14.222 47.6715 12.2701 45.5099 12.0281C43.3483 11.77 41.3964 13.3186 41.1545 15.4802C40.8641 17.9483 41.2674 20.9003 41.7836 23.933C43.2193 24.3686 44.6066 24.9977 45.8971 25.7397C47.2844 22.4651 48.6394 19.2227 48.962 16.3836ZM64.1416 25.8688C63.2867 23.8685 60.9637 22.9652 58.9635 23.8201C56.3341 24.9654 53.6079 27.2077 50.8655 29.5145C51.8979 30.5307 52.8658 31.6761 53.6885 32.9182C56.8019 32.531 59.7862 32.0632 62.0929 31.0631C64.0932 30.1759 65.0127 27.8529 64.1416 25.8688ZM57.5116 15.3189C55.7695 14.0284 53.3014 14.3833 52.0109 16.1255C50.0428 18.771 48.7201 22.7232 47.2844 26.5786C47.7683 26.9012 48.22 27.2238 48.6555 27.5626C48.9782 27.8207 49.3169 28.0949 49.6557 28.3692C52.9465 25.8849 56.3663 23.4652 58.3343 20.8197C59.6248 19.0775 59.2538 16.6094 57.5116 15.3189Z" fill="white"/>
<path d="M50.0267 46.904C48.8169 48.2107 47.5263 49.4205 46.1552 50.5981C44.2356 52.2596 42.2837 53.8728 40.2995 55.4214C38.1702 54.1147 36.6377 53.4534 36.3796 53.7921C36.1538 54.0986 37.041 55.2278 38.638 56.6958C33.2824 60.6802 27.6203 64.1968 21.5388 67.0843C20.587 67.536 19.5869 67.8586 18.6029 68.2135C18.3448 68.3103 18.0705 68.3103 17.9576 68.3264C16.409 68.5039 15.9412 68.0845 16.0057 66.6649C16.1993 62.2449 17.5705 58.0992 18.99 53.9696C19.3772 52.8404 19.7805 51.7112 20.1999 50.582C22.3453 51.8886 23.8778 52.5661 24.1359 52.2274C24.4102 51.8564 23.1196 50.3723 20.9581 48.5172C22.5067 44.5166 24.2327 40.5806 26.2653 36.8058C30.3304 39.8224 33.9438 41.8065 34.3471 41.2581C34.7503 40.7096 31.766 37.7898 27.6526 34.741L27.4751 34.612C28.1849 33.4021 28.9269 32.1923 29.7174 31.0147C30.7014 29.5306 31.9112 28.1756 33.1049 26.8528C34.7019 25.0945 36.7668 24.4976 39.0735 25.0138C46.4617 26.6592 51.5914 30.9018 54.0111 38.177C54.4951 39.6611 54.0595 41.1129 53.3014 42.4518C52.7852 43.3552 52.2206 44.2101 51.5914 45.0167C47.6877 42.1614 44.3001 40.3225 43.9129 40.8387C43.5419 41.3549 46.2358 44.0165 50.0267 46.904Z" fill="white"/>
</svg>
